Coordinates
version=1
nRows=29
nColumns=24
inDegrees=yes

Units are S.I. units (second, meters, Newtons, ...)
If the header above contains a line with 'inDegrees', this indicates whether rotational values are in degrees (yes) or radians (no).

endheader
time	pelvis_tilt	pelvis_list	pelvis_rotation	pelvis_tx	pelvis_ty	pelvis_tz	hip_flexion_r	hip_adduction_r	hip_rotation_r	knee_angle_r	ankle_angle_r	subtalar_angle_r	mtp_angle_r	hip_flexion_l	hip_adduction_l	hip_rotation_l	knee_angle_l	ankle_angle_l	subtalar_angle_l	mtp_angle_l	lumbar_extension	lumbar_bending	lumbar_rotation
      1.24000000	      0.33521302	      0.66067016	      1.98636044	      0.11515674	      0.71276216	     -0.09241696	     30.44561634	      1.86254755	    -11.47785927	    -19.44501497	      3.08247214	    -10.15513723	      0.00000000	    -12.87723154	      1.83479501	     -1.70665843	    -36.05039148	     11.94716314	     -3.11812909	      0.00000000	    -11.58270392	     -2.90504945	     -4.94328003
      1.25000000	      0.12842582	     -0.36826310	      2.05228919	      0.13095045	      0.71132045	     -0.09111805	     30.72920904	      3.12785366	    -10.71271190	    -21.67487633	      2.07912413	    -12.20415498	      0.00000000	    -11.52973768	      0.46400658	     -2.06966006	    -40.02611421	      8.98809756	     -3.68967688	      0.00000000	    -11.17457591	     -1.77052418	     -4.97290465
      1.26000000	     -0.04784392	     -1.43121428	      2.09905869	      0.14663740	      0.71017416	     -0.08975782	     30.93414008	      4.43985651	    -10.07112206	    -23.89207265	      1.45022015	    -13.94431161	      0.00000000	    -10.02745387	     -1.01464199	     -2.49739717	    -44.09883849	      5.75960534	     -4.28903210	      0.00000000	    -10.82218436	     -0.61247218	     -5.02069885
      1.27000000	     -0.19940978	     -2.50108782	      2.12610545	      0.16216932	      0.70936791	     -0.08836060	     31.03113244	      5.76463386	     -9.57887017	    -25.98964073	      1.30864093	    -15.28689535	      0.00000000	     -8.38493429	     -2.55242894	     -2.90497408	    -48.18093848	      2.49959635	     -5.05003555	      0.00000000	    -10.52485035	      0.53782703	     -5.07519091
      1.28000000	     -0.34126550	     -3.56109380	      2.13663908	      0.17749799	      0.70892423	     -0.08694253	     31.00060088	      7.07718336	     -9.24494282	    -27.87635733	      1.68272098	    -16.21179714	      0.00000000	     -6.59072496	     -4.11955452	     -3.24722513	    -52.21778831	     -0.49454644	     -5.95766931	      0.00000000	    -10.26986905	      1.66077539	     -5.13440109
      1.29000000	     -0.48536945	     -4.58254995	      2.12744847	      0.19258414	      0.70885978	     -0.08552957	     30.82508371	      8.34183538	     -9.05756596	    -29.48695988	      2.53055888	    -16.72670334	      0.00000000	     -4.63965758	     -5.65638036	     -3.47583164	    -56.15090025	     -2.97806162	     -7.04700627	      0.00000000	    -10.04721655	      2.72516926	     -5.18452465
      1.30000000	     -0.64497196	     -5.54550119	      2.09858416	      0.20740084	      0.70917230	     -0.08413990	     30.49206262	      9.53360828	     -8.99513646	    -30.76990985	      3.75310198	    -16.87112717	      0.00000000	     -2.51871125	     -7.12148559	     -3.57174745	    -59.93596497	     -4.76982521	     -8.25328922	      0.00000000	     -9.84221719	      3.70997998	     -5.21925547
      1.31000000	     -0.81999645	     -6.42989543	      2.04553731	      0.22193735	      0.70985781	     -0.08278617	     29.98004735	     10.63582813	     -9.01422529	    -31.68826178	      5.21695194	    -16.71862880	      0.00000000	     -0.23514408	     -8.47195471	     -3.53260772	    -63.52313204	     -5.80761930	     -9.54747759	      0.00000000	     -9.65483305	      4.59427092	     -5.22376623
      1.32000000	     -1.01424504	     -7.21754064	      1.96933784	      0.23619670	      0.71088875	     -0.08148643	     29.28750204	     11.62484816	     -9.09824089	    -32.23729888	      6.80427454	    -16.27848181	      0.00000000	      2.20453912	     -9.67027931	     -3.36261042	    -66.86278610	     -6.09804425	    -10.85084437	      0.00000000	     -9.47702993	      5.36099526	     -5.19352367
      1.33000000	     -1.22132084	     -7.89639535	      1.86596805	      0.25019762	      0.71223436	     -0.08024810	     28.40807789	     12.49362483	     -9.20841260	    -32.42211541	      8.39711936	    -15.60789036	      0.00000000	      4.77239703	    -10.69023782	     -3.08380998	    -69.90086907	     -5.72114244	    -12.09338411	      0.00000000	     -9.31136768	      6.00047933	     -5.11979353
      1.34000000	     -1.43401714	     -8.45614650	      1.73264530	      0.26396609	      0.71385167	     -0.07907833	     27.34696323	     13.23558793	     -9.31311352	    -32.26954854	      9.90448429	    -14.75467997	      0.00000000	      7.43263314	    -11.51121756	     -2.72263438	    -72.58616244	     -4.79451526	    -13.20648007	      0.00000000	     -9.16096366	      6.50489649	     -4.99293810
      1.35000000	     -1.64638846	     -8.89017025	      1.56317259	      0.27753426	      0.71568610	     -0.07798231	     26.11986231	     13.84822458	     -9.38293986	    -31.82220200	     11.26731087	    -13.76390343	      0.00000000	     10.14361636	    -12.12195063	     -2.31302130	    -74.87481591	     -3.45576026	    -14.12752911	      0.00000000	     -9.02717136	      6.87148261	     -4.80210913
      1.36000000	     -1.85207701	     -9.19672874	      1.35185290	      0.29093627	      0.71767742	     -0.07696467	     24.74830653	     14.33249439	     -9.39521764	    -31.13255675	     12.45726179	    -12.68092966	      0.00000000	     12.85937692	    -12.52244305	     -1.88962479	    -76.73316005	     -1.84800885	    -14.81302746	      0.00000000	     -8.91204294	      7.10388359	     -4.54060801
      1.37000000	     -2.04753024	     -9.37870613	      1.09050552	      0.30420519	      0.71975944	     -0.07602830	     23.25995012	     14.69335632	     -9.33002187	    -30.25782330	     13.47140434	    -11.55283377	      0.00000000	     15.53540847	    -12.72395688	     -1.48758132	    -78.13989996	     -0.10936148	    -15.25361223	      0.00000000	     -8.81543362	      7.21125354	     -4.19884779
      1.38000000	     -2.23068906	     -9.44422478	      0.77130184	      0.31737293	      0.72186523	     -0.07517704	     21.68339123	     14.93908046	     -9.17326811	    -29.25318160	     14.32595792	    -10.42382143	      0.00000000	     18.13058370	    -12.74870925	     -1.13732220	    -79.08550233	      1.63538935	    -15.47997341	      0.00000000	     -8.73585384	      7.20887779	     -3.76877905
      1.39000000	     -2.39946732	     -9.40744360	      0.38769982	      0.33046934	      0.72393010	     -0.07441337	     20.04399829	     15.08267498	     -8.91558415	    -28.16719148	     15.04758073	     -9.33852785	      0.00000000	     20.60898596	    -12.62982696	     -0.86197937	    -79.57180032	      3.28435956	    -15.55524400	      0.00000000	     -8.67268211	      7.11895918	     -3.24654355
      1.40000000	     -2.55857392	     -9.28262287	     -0.06741664	      0.34351944	      0.72588820	     -0.07374103	     18.37152467	     15.13421423	     -8.55504876	    -27.04418757	     15.67073153	     -8.32408247	      0.00000000	     22.94783028	    -12.40123441	     -0.67772241	    -79.60828182	      4.75941425	    -15.57436410	      0.00000000	     -8.61800739	      6.96311924	     -2.62589022
      1.41000000	     -2.70397826	     -9.09289125	     -0.59439751	      0.35655048	      0.72768848	     -0.07316171	     16.67794316	     15.11234662	     -8.09471991	    -25.91141508	     16.22467804	     -7.40744517	      0.00000000	     25.12356749	    -12.10849577	     -0.58928139	    -79.21150272	      6.01795638	    -15.61351840	      0.00000000	     -8.57427194	      6.77212889	     -1.91154990
      1.42000000	     -2.83979370	     -8.85933528	     -1.19181954	      0.36958331	      0.72928050	     -0.07267737	     14.98033030	     15.03088572	     -7.54650783	    -24.79038815	     16.73559896	     -6.59476513	      0.00000000	     27.12889558	    -11.79099335	     -0.59328308	    -78.40139527	      7.03994938	    -15.74240456	      0.00000000	     -8.53549882	      6.57310865	     -1.11035462
      1.43000000	     -2.96838572	     -8.60397520	     -1.85367499	      0.38263750	      0.73062515	     -0.07228806	     13.28803332	     14.90424151	     -6.92637677	    -23.69187235	     17.22224016	     -5.88175310	      0.00000000	     28.96080103	    -11.48627097	     -0.68008158	    -77.19923198	      7.83030310	    -15.98941961	      0.00000000	     -8.49870937	      6.39273693	     -0.23621588
      1.44000000	     -3.09960718	     -8.34534590	     -2.57131260	      0.39572625	      0.73168608	     -0.07199314	     11.61605530	     14.74246212	     -6.25752478	    -22.62270435	     17.69747591	     -5.24730504	      0.00000000	     30.62913571	    -11.22315563	     -0.83636321	    -75.62546643	      8.40895205	    -16.34847816	      0.00000000	     -8.45328021	      6.25225724	      0.69232537
      1.45000000	     -3.23791265	     -8.10193713	     -3.33038110	      0.40886271	      0.73244377	     -0.07178907	      9.96740984	     14.55727502	     -5.56347716	    -21.57771425	     18.16133340	     -4.67024922	      0.00000000	     32.14121651	    -11.02613872	     -1.04612787	    -73.69898024	      8.81177217	    -16.77004534	      0.00000000	     -8.39572534	      6.17092192	      1.64886516
      1.46000000	     -3.39910583	     -7.88266684	     -4.11726978	      0.42205287	      0.73287699	     -0.07167470	      8.36242144	     14.34827154	     -4.88874475	    -20.56211425	     18.62254609	     -4.08047704	      0.00000000	     33.51680984	    -10.90551660	     -1.29910275	    -71.43465938	      9.08359517	    -17.17399313	      0.00000000	     -8.31046982	      6.15726895	      2.60818804
      1.47000000	     -3.59572870	     -7.69674494	     -4.91428424	      0.43530220	      0.73297835	     -0.07164227	      6.80885148	     14.12489748	     -4.24794610	    -19.56349567	     19.06656681	     -3.47784404	      0.00000000	     34.77317776	    -10.86851835	     -1.58585570	    -68.84492588	      9.27269510	    -17.47654611	      0.00000000	     -8.18554274	      6.21815481	      3.53807212
      1.48000000	     -3.84182823	     -7.54308506	     -5.70519038	      0.44861736	      0.73274522	     -0.07168753	      5.32420134	     13.88232143	     -3.68669335	    -18.58591626	     19.49448744	     -2.79047708	      0.00000000	     35.92611005	    -10.91060238	     -1.90856468	    -65.93868100	      9.43890366	    -17.57130501	      0.00000000	     -8.00587145	      6.34898020	      4.41019873
      1.49000000	     -4.15073658	     -7.41892206	     -6.47456845	      0.46200462	      0.73218309	     -0.07180156	      3.92061032	     13.62331173	     -3.22022743	    -17.62483435	     19.89380635	     -2.01873169	      0.00000000	     36.98891111	    -11.02348586	     -2.27634290	    -62.72240331	      9.63016997	    -17.39014184	      0.00000000	     -7.75605353	      6.54258897	      5.19767457
      1.50000000	     -4.52944933	     -7.31564099	     -7.20991422	      0.47547762	      0.73130611	     -0.07197636	      2.60798956	     13.34451462	     -2.86997522	    -16.68603090	     20.25835713	     -1.14450141	      0.00000000	     37.96381493	    -11.19297700	     -2.71050658	    -59.20241323	      9.89495503	    -16.87106614	      0.00000000	     -7.42535632	      6.78458473	      5.87972067
      1.51000000	     -4.97784292	     -7.22186150	     -7.90329288	      0.48905910	      0.73013760	     -0.07220210	      1.38992566	     13.04183679	     -2.64595836	    -15.77992100	     20.58416519	     -0.16977859	      0.00000000	     38.84148149	    -11.40178077	     -3.24371896	    -55.38745583	     10.26296155	    -15.98331339	      0.00000000	     -7.00813482	      7.05626312	      6.44466073
      1.52000000	     -5.48429984	     -7.12461211	     -8.55147789	      0.50278339	      0.72871255	     -0.07246994	      0.25858331	     12.70959275	     -2.54295616	    -14.92054922	     20.86822887	      0.88051927	      0.00000000	     39.59621349	    -11.62885067	     -3.91674001	    -51.29261863	     10.73978606	    -14.72134559	      0.00000000	     -6.50932097	      7.33560847	      6.89141354
